<?xml version="1.0" standalone="no"?>
<!DOCTYPE svg PUBLIC "-//W3C//DTD SVG 20010904//EN"
 "http://www.w3.org/TR/2001/REC-SVG-20010904/DTD/svg10.dtd">
<svg version="1.0" xmlns="http://www.w3.org/2000/svg"
 width="512.000000pt" height="512.000000pt" viewBox="0 0 512.000000 512.000000"
 preserveAspectRatio="xMidYMid meet">

<g transform="translate(0.000000,512.000000) scale(0.100000,-0.100000)"
fill="#000000" stroke="none">
<path d="M2140 4930 c-8 -5 -31 -16 -50 -24 -19 -8 -57 -25 -85 -37 -27 -12
-86 -37 -130 -56 -44 -19 -98 -43 -120 -53 -22 -10 -62 -28 -90 -40 -68 -31
-156 -69 -180 -80 -11 -5 -51 -23 -88 -39 -38 -17 -71 -31 -74 -31 -4 0 -36
-14 -72 -31 -36 -17 -75 -34 -86 -39 -208 -87 -265 -137 -265 -234 0 -39 19
-105 40 -144 12 -22 34 -75 55 -134 15 -39 15 -53 6 -77 -23 -54 -57 -78 -211
-149 -110 -51 -144 -80 -165 -143 -21 -63 -12 -105 55 -254 29 -65 40 -102 40
-140 0 -37 -5 -47 -45 -84 -24 -22 -49 -41 -54 -41 -5 0 -39 -13 -74 -30 -36
-16 -71 -30 -77 -30 -6 0 -36 -25 -67 -56 l-54 -56 2 -87 3 -86 -45 -65 c-80
-114 -77 -181 11 -268 31 -31 63 -62 71 -67 93 -67 143 -113 156 -143 22 -54
9 -115 -40 -177 -84 -110 -124 -176 -132 -219 -17 -87 13 -132 160 -239 118
-86 139 -113 133 -181 -4 -45 -13 -63 -75 -146 -91 -124 -103 -148 -103 -214
0 -52 2 -57 48 -103 26 -26 182 -147 346 -268 163 -121 373 -276 464 -344 222
-164 235 -172 297 -178 88 -9 107 4 257 187 30 36 70 74 90 84 33 18 39 19 79
6 24 -8 80 -42 124 -74 144 -108 199 -126 275 -92 40 17 93 65 130 116 40 57
43 61 95 116 61 63 91 73 148 48 35 -15 107 -63 127 -84 17 -18 101 -69 129
-78 69 -24 137 -8 200 47 21 18 35 20 130 18 103 -2 109 -1 143 25 54 41 74
95 93 243 25 202 51 233 190 226 44 -3 130 -5 192 -5 111 -1 112 -1 143 29 41
39 57 79 69 173 21 159 27 188 46 219 31 53 108 75 183 53 19 -5 71 -12 116
-16 71 -6 88 -4 132 15 83 36 88 52 139 491 9 74 20 173 26 220 6 47 15 126
20 175 4 50 16 151 24 225 30 257 30 290 0 353 -16 35 -38 63 -58 76 -38 23
-166 51 -234 51 -55 0 -115 30 -146 72 -24 32 -26 116 -6 241 11 68 11 83 -4
130 -36 110 -65 124 -330 156 -53 7 -77 15 -105 38 -47 38 -53 69 -40 213 11
130 6 188 -19 228 -24 36 -64 71 -83 72 -28 0 -80 40 -91 68 -45 120 -105 182
-178 182 -33 0 -127 -23 -157 -38 -17 -8 -33 -15 -114 -50 -14 -6 -51 -14 -82
-17 -57 -6 -58 -6 -95 34 -23 24 -52 74 -72 123 -43 103 -91 181 -127 205 -44
28 -138 21 -219 -16 -37 -17 -72 -31 -78 -31 -7 0 -23 -8 -37 -17 -31 -22
-140 -24 -165 -3 -26 22 -57 75 -95 165 -43 101 -56 122 -98 163 -31 29 -40
32 -96 31 -33 0 -68 -4 -76 -9z m407 -505 c32 -37 50 -71 88 -165 61 -149 151
-198 280 -151 28 10 61 23 75 29 152 66 190 73 230 45 42 -29 44 -32 134 -225
35 -77 62 -110 108 -132 13 -6 32 -30 43 -52 47 -97 72 -108 340 -143 59 -8
108 -39 131 -84 15 -27 15 -44 4 -151 -24 -223 -4 -282 105 -324 31 -12 70
-22 87 -22 17 0 74 -7 127 -16 89 -14 98 -18 129 -51 28 -32 32 -43 32 -94 0
-32 -5 -80 -10 -106 -6 -26 -14 -95 -20 -153 -5 -58 -16 -163 -25 -235 -8 -71
-22 -191 -30 -265 -9 -74 -22 -196 -31 -270 -8 -74 -19 -173 -24 -220 -11
-104 -30 -151 -72 -182 -35 -24 -72 -27 -298 -17 -152 7 -191 -38 -224 -257
-32 -218 -51 -232 -267 -213 -138 12 -184 8 -231 -20 -24 -15 -42 -18 -78 -14
-35 4 -56 0 -87 -16 -54 -27 -76 -49 -152 -149 -64 -85 -129 -142 -162 -142
-30 0 -89 31 -166 87 -156 113 -209 131 -282 94 -39 -21 -121 -108 -160 -173
-12 -21 -43 -56 -68 -78 -52 -45 -85 -51 -149 -24 -44 18 -1063 771 -1107 817
-71 75 -63 133 38 272 87 120 95 136 95 203 0 53 -4 66 -33 103 -17 23 -63 65
-102 92 -38 27 -89 69 -113 94 -37 39 -42 49 -42 91 0 40 8 57 50 117 121 172
120 170 126 237 5 46 14 73 33 98 23 31 26 44 25 110 -1 67 -5 85 -44 165 -33
68 -44 105 -48 153 -4 61 -3 63 31 96 19 18 63 43 96 56 34 12 64 27 67 31 3
5 12 9 21 9 8 0 38 14 67 31 113 68 125 140 53 316 -67 160 -70 173 -52 214
26 60 44 74 150 120 45 19 103 45 193 85 17 7 47 21 65 28 17 8 58 26 89 40
31 15 59 26 62 26 3 0 36 14 73 31 37 17 82 36 98 43 17 7 50 23 75 34 25 11
81 36 125 55 101 43 160 69 280 123 90 40 105 44 164 40 49 -3 58 -7 88 -41z"/>
</g>
</svg>
